<svg width="19" height="19" viewBox="0 0 19 19" fill="none" xmlns="http://www.w3.org/2000/svg">
<path d="M9.34166 7.44167V11.4H14.725C13.9333 13.5375 11.875 14.9625 9.5 14.9625C6.4125 14.9625 3.95833 12.5083 3.95833 9.42083C3.95833 6.33333 6.4125 3.87916 9.5 3.87916C10.6875 3.87916 11.7958 4.275 12.7458 4.90833L13.0625 5.14583L15.4375 2.05833L15.1208 1.82083C13.4583 0.633333 11.5583 0 9.5 0C4.275 0 0 4.275 0 9.5C0 14.725 4.275 19 9.5 19C14.725 19 19 14.725 19 9.5V7.52083H9.34166V7.44167Z" fill="url(#paint0_linear_3145_2130)"/>
<defs>
<linearGradient id="paint0_linear_3145_2130" x1="7.5" y1="1" x2="14.5" y2="19" gradientUnits="userSpaceOnUse">
<stop stop-color="#FF2E2E"/>
<stop offset="0.390625" stop-color="#FAFF05"/>
<stop offset="0.703125" stop-color="#00FF19"/>
<stop offset="1" stop-color="#0047FF"/>
</linearGradient>
</defs>
</svg>
