<svg width="21" height="13" viewBox="0 0 21 13" fill="none" xmlns="http://www.w3.org/2000/svg">
<path d="M20.8049 11.0064C20.8049 10.9242 20.7214 10.9242 20.7214 10.842C20.3872 10.1845 19.6352 9.36255 18.6325 8.45844C18.1312 8.04748 17.8805 7.71871 17.7134 7.55433C17.4628 7.22556 17.4628 6.97899 17.5463 6.65022C17.6299 6.40365 17.9641 5.99268 18.549 5.25295C18.8832 4.84199 19.0503 4.59542 19.301 4.34885C20.5543 2.70501 21.1391 1.63651 20.972 1.14336L20.8885 1.06118C20.8049 0.978984 20.7214 0.896795 20.5543 0.896795C20.3872 0.814603 20.1365 0.814603 19.8858 0.896795H16.7108C16.6272 0.896795 16.6272 0.896795 16.4601 0.896795C16.3766 0.896795 16.293 0.896795 16.293 0.896795H16.2095H16.1259L16.0424 0.978979C15.9588 1.06117 15.9588 1.06117 15.9588 1.14336C15.6246 2.04747 15.2068 2.7872 14.789 3.60912C14.5384 4.02007 14.2877 4.43104 14.0371 4.75981C13.7864 5.08858 13.6193 5.33515 13.4522 5.49953C13.2851 5.66391 13.118 5.74611 13.0344 5.91049C12.9509 5.99268 12.7838 6.07488 12.7838 5.99269C12.7002 5.99269 12.6166 5.99268 12.6166 5.91049C12.5331 5.8283 12.4495 5.7461 12.366 5.66391C12.2824 5.58172 12.2824 5.41734 12.1989 5.25295C12.1989 5.08857 12.1989 4.92418 12.1989 4.84199C12.1989 4.7598 12.1989 4.51323 12.1989 4.34885C12.1989 4.10227 12.1989 3.93789 12.1989 3.85569C12.1989 3.60912 12.1989 3.28036 12.1989 2.95159C12.1989 2.62282 12.1989 2.37624 12.1989 2.21186C12.1989 2.04747 12.1989 1.8009 12.1989 1.63652C12.1989 1.38994 12.1989 1.22555 12.1989 1.14336C12.1989 1.06117 12.1153 0.89679 12.1153 0.814598C12.0318 0.732406 11.9482 0.650212 11.8647 0.56802C11.7811 0.485828 11.614 0.485831 11.5304 0.403639C11.1127 0.321447 10.6114 0.239258 10.0265 0.239258C8.68962 0.239258 7.77052 0.321452 7.43631 0.485836C7.2692 0.568028 7.10209 0.650214 7.01854 0.814598C6.85143 0.978982 6.85143 1.06118 6.93498 1.06118C7.35275 1.14337 7.68697 1.30774 7.85408 1.55432L7.93764 1.71871C8.02119 1.80091 8.02118 1.96528 8.10473 2.21186C8.18828 2.45843 8.18829 2.70501 8.18829 3.03378C8.18829 3.52693 8.18829 4.02008 8.18829 4.34885C8.18829 4.75981 8.10473 5.00638 8.10473 5.25295C8.10473 5.49953 8.02119 5.66392 7.93764 5.74611C7.85408 5.91049 7.85407 5.99269 7.77052 5.99269C7.77052 5.99269 7.77051 6.07487 7.68696 6.07487C7.60341 6.07487 7.51986 6.15707 7.35275 6.15707C7.2692 6.15707 7.10209 6.07488 7.01854 5.99269C6.85143 5.91049 6.68432 5.74611 6.60077 5.58173C6.43366 5.41734 6.26655 5.17076 6.09944 4.84199C5.93233 4.51323 5.68166 4.18446 5.51455 3.69131L5.34746 3.36255C5.26391 3.19817 5.0968 2.86939 4.92969 2.45843C4.76258 2.04748 4.59547 1.71871 4.42836 1.30775C4.34481 1.14337 4.26126 1.06117 4.17771 0.978979H4.09415C4.09415 0.978979 4.01059 0.896795 3.92703 0.896795C3.84348 0.896795 3.75994 0.814598 3.67638 0.814598H0.668434C0.334218 0.814598 0.167113 0.896787 0.083559 0.978979L0 1.06118C0 1.06118 0 1.14337 0 1.22556C0 1.30775 5.09848e-06 1.38994 0.083559 1.55432C0.501329 2.54062 1.00265 3.52693 1.50397 4.51323C2.0053 5.41734 2.50663 6.23926 2.84084 6.8146C3.25861 7.38995 3.59282 7.96529 4.01059 8.45844C4.42836 8.95159 4.67902 9.28036 4.76257 9.44474C4.92968 9.60912 5.01323 9.69131 5.09678 9.7735L5.34746 10.0201C5.51457 10.1845 5.76522 10.431 6.09944 10.6776C6.43366 10.9242 6.85142 11.1708 7.26919 11.4173C7.68696 11.6639 8.18829 11.8283 8.68962 11.9927C9.2745 12.1571 9.77581 12.2393 10.2771 12.1571H11.5304C11.7811 12.1571 11.9482 12.0749 12.1153 11.9105L12.1989 11.8283C12.1989 11.7461 12.2824 11.7461 12.2824 11.6639C12.2824 11.5817 12.2824 11.4995 12.2824 11.3352C12.2824 11.0064 12.2824 10.7598 12.366 10.5132C12.4495 10.2667 12.4496 10.1023 12.5331 9.9379C12.6167 9.77351 12.7002 9.69131 12.7838 9.60912C12.8673 9.52693 12.9509 9.44474 12.9509 9.44474H13.0344C13.2015 9.36255 13.4522 9.44474 13.6193 9.60912C13.87 9.77351 14.1206 10.0201 14.2877 10.2667C14.4548 10.5132 14.7055 10.7598 15.0397 11.0886C15.3739 11.4173 15.6246 11.6639 15.7917 11.7461L16.0424 11.9105C16.2095 11.9927 16.3766 12.0749 16.6272 12.1571C16.8779 12.2393 17.045 12.2393 17.2121 12.2393L20.053 12.1571C20.3036 12.1571 20.5543 12.0749 20.7214 11.9927C20.8885 11.9105 20.972 11.8283 20.972 11.6639C20.972 11.5817 20.972 11.4173 20.972 11.3352C20.8049 11.1708 20.8049 11.0886 20.8049 11.0064Z" fill="#2D9CDB"/>
</svg>
